<svg xmlns="http://www.w3.org/2000/svg" viewBox="0 0 64 64">
  <!-- Tejado (chevron arriba) -->
  <path d="M12 26 L32 12 L52 26 L44 26 L32 18 L20 26 Z" fill="#4F5BD5"/>
  <!-- Letra H: mitad superior naranja -->
  <rect x="22" y="24" width="6" height="16" fill="#F5A623"/>
  <rect x="36" y="24" width="6" height="16" fill="#F5A623"/>
  <rect x="22" y="30" width="20" height="5" fill="#F5A623"/>
  <!-- Letra H: mitad inferior amarilla (reflejo) -->
  <rect x="22" y="35" width="6" height="13" fill="#FBE38E"/>
  <rect x="36" y="35" width="6" height="13" fill="#FBE38E"/>
  <!-- Olas (agua) -->
  <path d="M6 34 q4 -4 8 0 t8 0 M42 34 q4 -4 8 0 t8 0" fill="none" stroke="#4F5BD5" stroke-width="3" stroke-linecap="round"/>
  <!-- Chevron abajo -->
  <path d="M12 50 L20 50 L32 58 L44 50 L52 50 L32 62 Z" fill="#4F5BD5"/>
</svg>
